# Wavefront OBJ file automatically generated by Tiled2Unity

# Vertices (Count = 121)
v 0 -32 0
v -32 -32 0
v -32 0 0
v 0 0 0
v -64 -32 0
v -64 0 0
v -96 -32 0
v -96 0 0
v -128 -32 0
v -128 0 0
v -160 -32 0
v -160 0 0
v -192 -32 0
v -192 0 0
v -224 -32 0
v -224 0 0
v -256 -32 0
v -256 0 0
v -288 -32 0
v -288 0 0
v -320 -32 0
v -320 0 0
v 0 -64 0
v -32 -64 0
v -64 -64 0
v -96 -64 0
v -128 -64 0
v -160 -64 0
v -192 -64 0
v -224 -64 0
v -256 -64 0
v -288 -64 0
v -320 -64 0
v 0 -96 0
v -32 -96 0
v -64 -96 0
v -96 -96 0
v -128 -96 0
v -160 -96 0
v -192 -96 0
v -224 -96 0
v -256 -96 0
v -288 -96 0
v -320 -96 0
v 0 -128 0
v -32 -128 0
v -64 -128 0
v -96 -128 0
v -128 -128 0
v -160 -128 0
v -192 -128 0
v -224 -128 0
v -256 -128 0
v -288 -128 0
v -320 -128 0
v 0 -160 0
v -32 -160 0
v -64 -160 0
v -96 -160 0
v -128 -160 0
v -160 -160 0
v -192 -160 0
v -224 -160 0
v -256 -160 0
v -288 -160 0
v -320 -160 0
v 0 -192 0
v -32 -192 0
v -64 -192 0
v -96 -192 0
v -128 -192 0
v -160 -192 0
v -192 -192 0
v -224 -192 0
v -256 -192 0
v -288 -192 0
v -320 -192 0
v 0 -224 0
v -32 -224 0
v -64 -224 0
v -96 -224 0
v -128 -224 0
v -160 -224 0
v -192 -224 0
v -224 -224 0
v -256 -224 0
v -288 -224 0
v -320 -224 0
v 0 -256 0
v -32 -256 0
v -64 -256 0
v -96 -256 0
v -128 -256 0
v -160 -256 0
v -192 -256 0
v -224 -256 0
v -256 -256 0
v -288 -256 0
v -320 -256 0
v 0 -288 0
v -32 -288 0
v -64 -288 0
v -96 -288 0
v -128 -288 0
v -160 -288 0
v -192 -288 0
v -224 -288 0
v -256 -288 0
v -288 -288 0
v -320 -288 0
v 0 -320 0
v -32 -320 0
v -64 -320 0
v -96 -320 0
v -128 -320 0
v -160 -320 0
v -192 -320 0
v -224 -320 0
v -256 -320 0
v -288 -320 0
v -320 -320 0

# Texture cooridinates (Count = 104)
vt 0.3750153 0.8125076
vt 0.4999847 0.8125076
vt 0.4999847 0.8749924
vt 0.3750153 0.8749924
vt 0.5000153 0.8125076
vt 0.6249847 0.8125076
vt 0.6249847 0.8749924
vt 0.5000153 0.8749924
vt 0.1250153 0.5625076
vt 0.2499847 0.5625076
vt 0.2499847 0.6249924
vt 0.1250153 0.6249924
vt 0.2500153 0.5625076
vt 0.3749847 0.5625076
vt 0.3749847 0.6249924
vt 0.2500153 0.6249924
vt 0.3750153 0.5625076
vt 0.4999847 0.5625076
vt 0.4999847 0.6249924
vt 0.3750153 0.6249924
vt 1.525879E-05 0.06250763
vt 0.1249847 0.06250763
vt 0.1249847 0.1249924
vt 1.525879E-05 0.1249924
vt 0.1250153 0.06250763
vt 0.2499847 0.06250763
vt 0.2499847 0.1249924
vt 0.1250153 0.1249924
vt 0.2500153 0.06250763
vt 0.3749847 0.06250763
vt 0.3749847 0.1249924
vt 0.2500153 0.1249924
vt 0.1250153 0.8750076
vt 0.2499847 0.8750076
vt 0.2499847 0.9374924
vt 0.1250153 0.9374924
vt 0.1250153 0.9375076
vt 0.2499847 0.9375076
vt 0.2499847 0.9999924
vt 0.1250153 0.9999924
vt 0.5000153 0.7500076
vt 0.6249847 0.7500076
vt 0.6249847 0.8124924
vt 0.5000153 0.8124924
vt 0.3750153 0.7500076
vt 0.4999847 0.7500076
vt 0.4999847 0.8124924
vt 0.3750153 0.8124924
vt 0.6250153 0.9375076
vt 0.7499847 0.9375076
vt 0.7499847 0.9999924
vt 0.6250153 0.9999924
vt 0.6250153 0.6250076
vt 0.7499847 0.6250076
vt 0.7499847 0.6874924
vt 0.6250153 0.6874924
vt 0.6250153 0.5625076
vt 0.7499847 0.5625076
vt 0.7499847 0.6249924
vt 0.6250153 0.6249924
vt 0.8750153 0.9375076
vt 0.9999847 0.9375076
vt 0.9999847 0.9999924
vt 0.8750153 0.9999924
vt 0.8750153 0.8750076
vt 0.9999847 0.8750076
vt 0.9999847 0.9374924
vt 0.8750153 0.9374924
vt 1.525879E-05 0.1250076
vt 0.1249847 0.1250076
vt 0.1249847 0.1874924
vt 1.525879E-05 0.1874924
vt 0.1250153 0.1250076
vt 0.2499847 0.1250076
vt 0.2499847 0.1874924
vt 0.1250153 0.1874924
vt 0.2500153 0.1250076
vt 0.3749847 0.1250076
vt 0.3749847 0.1874924
vt 0.2500153 0.1874924
vt 0.2500153 0.8125076
vt 0.3749847 0.8125076
vt 0.3749847 0.8749924
vt 0.2500153 0.8749924
vt 1.525879E-05 0.8125076
vt 0.1249847 0.8125076
vt 0.1249847 0.8749924
vt 1.525879E-05 0.8749924
vt 1.525879E-05 0.8750076
vt 0.1249847 0.8750076
vt 0.1249847 0.9374924
vt 1.525879E-05 0.9374924
vt 0.2500153 0.9375076
vt 0.3749847 0.9375076
vt 0.3749847 0.9999924
vt 0.2500153 0.9999924
vt 0.5000153 0.5625076
vt 0.6249847 0.5625076
vt 0.6249847 0.6249924
vt 0.5000153 0.6249924
vt 0.6250153 0.8125076
vt 0.7499847 0.8125076
vt 0.7499847 0.8749924
vt 0.6250153 0.8749924

# Normal
vn 0 0 -1

# Groups (Count = 6)

g mesh_0001
f 1/1/1 2/2/1 3/3/1 4/4/1
f 2/1/1 5/2/1 6/3/1 3/4/1
f 5/1/1 7/2/1 8/3/1 6/4/1
f 7/1/1 9/2/1 10/3/1 8/4/1
f 9/1/1 11/2/1 12/3/1 10/4/1
f 11/1/1 13/2/1 14/3/1 12/4/1
f 13/1/1 15/2/1 16/3/1 14/4/1
f 15/1/1 17/2/1 18/3/1 16/4/1
f 17/1/1 19/2/1 20/3/1 18/4/1
f 19/1/1 21/2/1 22/3/1 20/4/1
f 23/1/1 24/2/1 2/3/1 1/4/1
f 24/1/1 25/2/1 5/3/1 2/4/1
f 25/1/1 26/2/1 7/3/1 5/4/1
f 26/1/1 27/2/1 9/3/1 7/4/1
f 27/1/1 28/2/1 11/3/1 9/4/1
f 28/1/1 29/2/1 13/3/1 11/4/1
f 29/1/1 30/2/1 15/3/1 13/4/1
f 30/1/1 31/2/1 17/3/1 15/4/1
f 31/1/1 32/2/1 19/3/1 17/4/1
f 32/1/1 33/2/1 21/3/1 19/4/1
f 34/5/1 35/6/1 24/7/1 23/8/1
f 35/5/1 36/6/1 25/7/1 24/8/1
f 36/5/1 37/6/1 26/7/1 25/8/1
f 37/1/1 38/2/1 27/3/1 26/4/1
f 38/1/1 39/2/1 28/3/1 27/4/1
f 39/1/1 40/2/1 29/3/1 28/4/1
f 40/5/1 41/6/1 30/7/1 29/8/1
f 41/5/1 42/6/1 31/7/1 30/8/1
f 42/5/1 43/6/1 32/7/1 31/8/1
f 43/5/1 44/6/1 33/7/1 32/8/1
f 45/5/1 46/6/1 35/7/1 34/8/1
f 46/1/1 47/2/1 36/3/1 35/4/1
f 47/1/1 48/2/1 37/3/1 36/4/1
f 48/5/1 49/6/1 38/7/1 37/8/1
f 49/5/1 50/6/1 39/7/1 38/8/1
f 50/5/1 51/6/1 40/7/1 39/8/1
f 51/1/1 52/2/1 41/3/1 40/4/1
f 52/1/1 53/2/1 42/3/1 41/4/1
f 53/1/1 54/2/1 43/3/1 42/4/1
f 54/1/1 55/2/1 44/3/1 43/4/1
f 56/5/1 57/6/1 46/7/1 45/8/1
f 57/1/1 58/2/1 47/3/1 46/4/1
f 58/1/1 59/2/1 48/3/1 47/4/1
f 59/1/1 60/2/1 49/3/1 48/4/1
f 60/1/1 61/2/1 50/3/1 49/4/1
f 61/1/1 62/2/1 51/3/1 50/4/1
f 62/1/1 63/2/1 52/3/1 51/4/1
f 63/1/1 64/2/1 53/3/1 52/4/1
f 64/1/1 65/2/1 54/3/1 53/4/1
f 65/1/1 66/2/1 55/3/1 54/4/1
f 67/5/1 68/6/1 57/7/1 56/8/1
f 68/1/1 69/2/1 58/3/1 57/4/1
f 69/1/1 70/2/1 59/3/1 58/4/1
f 70/1/1 71/2/1 60/3/1 59/4/1
f 71/1/1 72/2/1 61/3/1 60/4/1
f 72/1/1 73/2/1 62/3/1 61/4/1
f 73/1/1 74/2/1 63/3/1 62/4/1
f 74/1/1 75/2/1 64/3/1 63/4/1
f 75/1/1 76/2/1 65/3/1 64/4/1
f 76/1/1 77/2/1 66/3/1 65/4/1
f 78/5/1 79/6/1 68/7/1 67/8/1
f 79/1/1 80/2/1 69/3/1 68/4/1
f 80/1/1 81/2/1 70/3/1 69/4/1
f 81/1/1 82/2/1 71/3/1 70/4/1
f 82/1/1 83/2/1 72/3/1 71/4/1
f 83/1/1 84/2/1 73/3/1 72/4/1
f 84/1/1 85/2/1 74/3/1 73/4/1
f 85/1/1 86/2/1 75/3/1 74/4/1
f 86/1/1 87/2/1 76/3/1 75/4/1
f 87/1/1 88/2/1 77/3/1 76/4/1
f 89/5/1 90/6/1 79/7/1 78/8/1
f 90/1/1 91/2/1 80/3/1 79/4/1
f 91/1/1 92/2/1 81/3/1 80/4/1
f 92/1/1 93/2/1 82/3/1 81/4/1
f 93/1/1 94/2/1 83/3/1 82/4/1
f 94/1/1 95/2/1 84/3/1 83/4/1
f 95/1/1 96/2/1 85/3/1 84/4/1
f 96/1/1 97/2/1 86/3/1 85/4/1
f 97/1/1 98/2/1 87/3/1 86/4/1
f 98/1/1 99/2/1 88/3/1 87/4/1
f 100/5/1 101/6/1 90/7/1 89/8/1
f 101/1/1 102/2/1 91/3/1 90/4/1
f 102/1/1 103/2/1 92/3/1 91/4/1
f 103/1/1 104/2/1 93/3/1 92/4/1
f 104/1/1 105/2/1 94/3/1 93/4/1
f 105/1/1 106/2/1 95/3/1 94/4/1
f 106/1/1 107/2/1 96/3/1 95/4/1
f 107/1/1 108/2/1 97/3/1 96/4/1
f 108/1/1 109/2/1 98/3/1 97/4/1
f 109/1/1 110/2/1 99/3/1 98/4/1
f 111/5/1 112/6/1 101/7/1 100/8/1
f 112/1/1 113/2/1 102/3/1 101/4/1
f 113/1/1 114/2/1 103/3/1 102/4/1
f 114/1/1 115/2/1 104/3/1 103/4/1
f 115/1/1 116/2/1 105/3/1 104/4/1
f 116/1/1 117/2/1 106/3/1 105/4/1
f 117/1/1 118/2/1 107/3/1 106/4/1
f 118/1/1 119/2/1 108/3/1 107/4/1
f 119/1/1 120/2/1 109/3/1 108/4/1
f 120/1/1 121/2/1 110/3/1 109/4/1

g mesh_0002
f 34/9/1 35/10/1 24/11/1 23/12/1
f 35/13/1 36/14/1 25/15/1 24/16/1
f 36/17/1 37/18/1 26/19/1 25/20/1
f 40/9/1 41/10/1 30/11/1 29/12/1
f 41/13/1 42/14/1 31/15/1 30/16/1
f 42/17/1 43/18/1 32/19/1 31/20/1

g mesh_0003
f 48/21/1 49/22/1 38/23/1 37/24/1
f 49/25/1 50/26/1 39/27/1 38/28/1
f 50/29/1 51/30/1 40/31/1 39/32/1

g mesh_0004
f 1/33/1 2/34/1 3/35/1 4/36/1
f 2/33/1 5/34/1 6/35/1 3/36/1
f 5/33/1 7/34/1 8/35/1 6/36/1
f 7/33/1 9/34/1 10/35/1 8/36/1
f 9/33/1 11/34/1 12/35/1 10/36/1
f 11/33/1 13/34/1 14/35/1 12/36/1
f 13/33/1 15/34/1 16/35/1 14/36/1
f 15/33/1 17/34/1 18/35/1 16/36/1
f 17/33/1 19/34/1 20/35/1 18/36/1
f 19/33/1 21/34/1 22/35/1 20/36/1
f 26/33/1 27/34/1 9/35/1 7/36/1
f 27/33/1 28/34/1 11/35/1 9/36/1
f 28/33/1 29/34/1 13/35/1 11/36/1
f 84/37/1 85/38/1 74/39/1 73/40/1
f 85/37/1 86/38/1 75/39/1 74/40/1
f 86/37/1 87/38/1 76/39/1 75/40/1
f 87/37/1 88/38/1 77/39/1 76/40/1

g mesh_0005
f 23/41/1 24/42/1 2/43/1 1/44/1
f 24/41/1 25/42/1 5/43/1 2/44/1
f 25/41/1 26/42/1 7/43/1 5/44/1
f 29/41/1 30/42/1 15/43/1 13/44/1
f 30/41/1 31/42/1 17/43/1 15/44/1
f 31/41/1 32/42/1 19/43/1 17/44/1
f 32/41/1 33/42/1 21/43/1 19/44/1
f 37/45/1 38/46/1 27/47/1 26/48/1
f 38/45/1 39/46/1 28/47/1 27/48/1
f 39/45/1 40/46/1 29/47/1 28/48/1
f 95/45/1 96/46/1 85/47/1 84/48/1
f 96/45/1 97/46/1 86/47/1 85/48/1
f 97/45/1 98/46/1 87/47/1 86/48/1
f 98/45/1 99/46/1 88/47/1 87/48/1

g mesh_0006
f 23/49/1 24/50/1 2/51/1 1/52/1
f 24/53/1 25/54/1 5/55/1 2/56/1
f 25/49/1 26/50/1 7/51/1 5/52/1
f 29/49/1 30/50/1 15/51/1 13/52/1
f 32/49/1 33/50/1 21/51/1 19/52/1
f 35/57/1 36/58/1 25/59/1 24/60/1
f 41/61/1 42/62/1 31/63/1 30/64/1
f 48/61/1 49/62/1 38/63/1 37/64/1
f 49/61/1 50/62/1 39/63/1 38/64/1
f 50/61/1 51/62/1 40/63/1 39/64/1
f 52/65/1 53/66/1 42/67/1 41/68/1
f 59/65/1 60/66/1 49/67/1 48/68/1
f 60/65/1 61/66/1 50/67/1 49/68/1
f 61/65/1 62/66/1 51/67/1 50/68/1
f 95/61/1 96/62/1 85/63/1 84/64/1
f 96/61/1 97/62/1 86/63/1 85/64/1
f 97/61/1 98/62/1 87/63/1 86/64/1
f 98/61/1 99/62/1 88/63/1 87/64/1
f 106/65/1 107/66/1 96/67/1 95/68/1
f 107/65/1 108/66/1 97/67/1 96/68/1
f 108/65/1 109/66/1 98/67/1 97/68/1
f 109/65/1 110/66/1 99/67/1 98/68/1

g mesh_0007
f 37/69/1 38/70/1 27/71/1 26/72/1
f 38/73/1 39/74/1 28/75/1 27/76/1
f 39/77/1 40/78/1 29/79/1 28/80/1

g mesh_0008
f 23/81/1 24/82/1 2/83/1 1/84/1
f 25/85/1 26/86/1 7/87/1 5/88/1
f 29/81/1 30/82/1 15/83/1 13/84/1
f 32/89/1 33/90/1 21/91/1 19/92/1
f 43/89/1 44/90/1 33/91/1 32/92/1
f 54/89/1 55/90/1 44/91/1 43/92/1
f 65/89/1 66/90/1 55/91/1 54/92/1
f 76/89/1 77/90/1 66/91/1 65/92/1
f 84/33/1 85/34/1 74/35/1 73/36/1
f 85/33/1 86/34/1 75/35/1 74/36/1
f 86/33/1 87/34/1 76/35/1 75/36/1
f 87/33/1 88/34/1 77/35/1 76/36/1
f 98/89/1 99/90/1 88/91/1 87/92/1
f 100/93/1 101/94/1 90/95/1 89/96/1
f 109/89/1 110/90/1 99/91/1 98/92/1
f 111/33/1 112/34/1 101/35/1 100/36/1
f 112/33/1 113/34/1 102/35/1 101/36/1
f 113/33/1 114/34/1 103/35/1 102/36/1
f 114/33/1 115/34/1 104/35/1 103/36/1
f 115/33/1 116/34/1 105/35/1 104/36/1
f 116/33/1 117/34/1 106/35/1 105/36/1
f 117/33/1 118/34/1 107/35/1 106/36/1
f 118/33/1 119/34/1 108/35/1 107/36/1
f 119/33/1 120/34/1 109/35/1 108/36/1
f 120/33/1 121/34/1 110/35/1 109/36/1

g mesh_0009
f 41/97/1 42/98/1 31/99/1 30/100/1

g mesh_tile_0022
f 1/101/1 2/102/1 3/103/1 4/104/1

